<svg xmlns="http://www.w3.org/2000/svg" xmlns:xlink="http://www.w3.org/1999/xlink" width="220" zoomAndPan="magnify" viewBox="0 0 165 82.499998" height="110" preserveAspectRatio="xMidYMid meet" version="1.0"><defs><clipPath id="72a8228e56"><path d="M 0.496094 0 L 164.503906 0 L 164.503906 82.003906 L 0.496094 82.003906 Z M 0.496094 0 " clip-rule="nonzero"/></clipPath><clipPath id="cbfa54652c"><path d="M 8.714844 19.25 L 52 19.25 L 52 62.488281 L 8.714844 62.488281 Z M 8.714844 19.25 " clip-rule="nonzero"/></clipPath><clipPath id="69f30b8939"><path d="M 140 30 L 156.285156 30 L 156.285156 54 L 140 54 Z M 140 30 " clip-rule="nonzero"/></clipPath></defs><g clip-path="url(#72a8228e56)"><path fill="#ffffff" d="M 0.496094 0 L 164.503906 0 L 164.503906 89.457031 L 0.496094 89.457031 Z M 0.496094 0 " fill-opacity="1" fill-rule="nonzero"/><path fill="#ffffff" d="M 0.496094 0 L 164.503906 0 L 164.503906 82.003906 L 0.496094 82.003906 Z M 0.496094 0 " fill-opacity="1" fill-rule="nonzero"/><path fill="#ffffff" d="M 0.496094 0 L 164.503906 0 L 164.503906 82.003906 L 0.496094 82.003906 Z M 0.496094 0 " fill-opacity="1" fill-rule="nonzero"/></g><g clip-path="url(#cbfa54652c)"><path fill="#1eb4d4" d="M 51.054688 34.074219 C 52.328125 30.230469 51.5625 22.5625 49.097656 19.734375 C 48.773438 19.363281 48.175781 19.414062 47.90625 19.824219 L 44.871094 24.449219 C 44.121094 25.375 42.769531 25.585938 41.753906 24.941406 C 38.460938 22.847656 34.527344 21.632812 30.300781 21.632812 C 26.074219 21.632812 22.140625 22.847656 18.847656 24.941406 C 17.835938 25.585938 16.484375 25.371094 15.730469 24.449219 L 12.695312 19.824219 C 12.425781 19.414062 11.828125 19.367188 11.503906 19.734375 C 9.039062 22.570312 8.277344 30.234375 9.546875 34.074219 C 9.96875 35.351562 10.082031 36.699219 9.835938 38.011719 C 9.585938 39.3125 9.339844 40.886719 9.339844 41.980469 C 9.339844 53.21875 18.726562 62.328125 30.296875 62.328125 C 41.871094 62.328125 51.253906 53.214844 51.253906 41.980469 C 51.253906 40.886719 51.003906 39.3125 50.757812 38.011719 C 50.511719 36.699219 50.632812 35.351562 51.054688 34.074219 Z M 30.296875 57.785156 C 21.347656 57.785156 14.070312 50.71875 14.070312 42.027344 C 14.070312 41.742188 14.082031 41.464844 14.097656 41.183594 C 14.417969 35.265625 18.125 30.207031 23.363281 27.796875 C 25.464844 26.820312 27.816406 26.28125 30.300781 26.28125 C 32.785156 26.28125 35.132812 26.820312 37.238281 27.800781 C 42.476562 30.210938 46.183594 35.273438 46.503906 41.1875 C 46.519531 41.46875 46.53125 41.753906 46.53125 42.03125 C 46.527344 50.71875 39.246094 57.785156 30.296875 57.785156 Z M 30.296875 57.785156 " fill-opacity="1" fill-rule="nonzero"/></g><path fill="#1eb4d4" d="M 37.328125 48.09375 L 33.179688 41.113281 L 29.625 35.292969 C 29.539062 35.152344 29.386719 35.070312 29.222656 35.070312 L 25.824219 35.070312 C 25.65625 35.070312 25.503906 35.15625 25.417969 35.300781 C 25.335938 35.441406 25.339844 35.617188 25.425781 35.753906 L 28.824219 41.304688 L 24.261719 48.066406 C 24.167969 48.203125 24.164062 48.382812 24.242188 48.527344 C 24.320312 48.671875 24.480469 48.765625 24.652344 48.765625 L 28.074219 48.765625 C 28.234375 48.765625 28.382812 48.6875 28.46875 48.554688 L 30.9375 44.816406 L 33.152344 48.542969 C 33.234375 48.683594 33.390625 48.769531 33.554688 48.769531 L 36.925781 48.769531 C 37.09375 48.769531 37.25 48.683594 37.328125 48.542969 C 37.414062 48.40625 37.414062 48.234375 37.328125 48.09375 Z M 37.328125 48.09375 " fill-opacity="1" fill-rule="nonzero"/><path fill="#1b2738" d="M 70.582031 30.332031 L 74.90625 30.332031 L 74.90625 53.359375 L 70.582031 53.359375 L 70.582031 43.546875 L 65.695312 43.546875 L 65.695312 53.363281 L 61.371094 53.363281 L 61.371094 30.332031 L 65.695312 30.332031 L 65.695312 40.332031 L 70.582031 40.332031 Z M 70.582031 30.332031 " fill-opacity="1" fill-rule="nonzero"/><path fill="#1b2738" d="M 88.253906 53.363281 L 87.347656 48.582031 L 82.160156 48.582031 L 81.328125 53.363281 L 77.003906 53.363281 L 81.777344 30.335938 L 87.601562 30.335938 L 92.601562 53.363281 Z M 82.726562 45.402344 L 86.746094 45.402344 L 84.683594 34.382812 Z M 82.726562 45.402344 " fill-opacity="1" fill-rule="nonzero"/><path fill="#1b2738" d="M 102.238281 49.164062 L 102.238281 44.238281 C 102.238281 43.847656 102.164062 43.585938 102.015625 43.449219 C 101.867188 43.316406 101.585938 43.25 101.183594 43.25 L 98.140625 43.25 C 95.558594 43.25 94.265625 42.035156 94.265625 39.597656 L 94.265625 33.949219 C 94.265625 31.535156 95.617188 30.335938 98.324219 30.335938 L 102.460938 30.335938 C 105.167969 30.335938 106.519531 31.542969 106.519531 33.949219 L 106.519531 37.160156 L 102.160156 37.160156 L 102.160156 34.53125 C 102.160156 34.140625 102.082031 33.878906 101.933594 33.746094 C 101.785156 33.609375 101.507812 33.542969 101.105469 33.542969 L 99.675781 33.542969 C 99.25 33.542969 98.960938 33.609375 98.8125 33.746094 C 98.664062 33.878906 98.585938 34.140625 98.585938 34.53125 L 98.585938 39.164062 C 98.585938 39.554688 98.664062 39.816406 98.8125 39.949219 C 98.960938 40.085938 99.25 40.152344 99.675781 40.152344 L 102.644531 40.152344 C 105.277344 40.152344 106.59375 41.34375 106.59375 43.730469 L 106.59375 49.753906 C 106.59375 52.164062 105.226562 53.363281 102.496094 53.363281 L 98.433594 53.363281 C 95.703125 53.363281 94.335938 52.160156 94.335938 49.753906 L 94.335938 46.574219 L 98.65625 46.574219 L 98.65625 49.164062 C 98.65625 49.554688 98.730469 49.816406 98.878906 49.949219 C 99.03125 50.085938 99.316406 50.152344 99.746094 50.152344 L 101.175781 50.152344 C 101.578125 50.152344 101.851562 50.085938 102.003906 49.949219 C 102.160156 49.816406 102.238281 49.554688 102.238281 49.164062 Z M 102.238281 49.164062 " fill-opacity="1" fill-rule="nonzero"/><path fill="#1b2738" d="M 118.132812 30.332031 L 122.453125 30.332031 L 122.453125 49.75 C 122.453125 52.160156 121.089844 53.359375 118.359375 53.359375 L 113.773438 53.359375 C 111.042969 53.359375 109.675781 52.152344 109.675781 49.75 L 109.675781 30.332031 L 114.003906 30.332031 L 114.003906 49.164062 C 114.003906 49.554688 114.078125 49.816406 114.226562 49.949219 C 114.375 50.085938 114.652344 50.152344 115.054688 50.152344 L 117.046875 50.152344 C 117.472656 50.152344 117.761719 50.085938 117.910156 49.949219 C 118.058594 49.816406 118.132812 49.554688 118.132812 49.164062 Z M 118.132812 30.332031 " fill-opacity="1" fill-rule="nonzero"/><path fill="#1b2738" d="M 130.351562 44.386719 L 130.351562 53.363281 L 126.03125 53.363281 L 126.03125 30.332031 L 134.75 30.332031 C 137.480469 30.332031 138.847656 31.535156 138.847656 33.941406 L 138.847656 40.769531 C 138.847656 42.765625 137.933594 43.933594 136.101562 44.277344 L 140.050781 53.363281 L 135.386719 53.363281 L 131.777344 44.386719 Z M 130.351562 33.542969 L 130.351562 41.28125 L 133.46875 41.28125 C 133.871094 41.28125 134.144531 41.214844 134.300781 41.078125 C 134.449219 40.945312 134.523438 40.683594 134.523438 40.292969 L 134.523438 34.53125 C 134.523438 34.140625 134.449219 33.878906 134.300781 33.746094 C 134.148438 33.609375 133.871094 33.542969 133.46875 33.542969 Z M 130.351562 33.542969 " fill-opacity="1" fill-rule="nonzero"/><g clip-path="url(#69f30b8939)"><path fill="#1b2738" d="M 151.929688 53.363281 L 151.027344 48.582031 L 145.835938 48.582031 L 145.007812 53.363281 L 140.6875 53.363281 L 145.457031 30.335938 L 151.285156 30.335938 L 156.285156 53.363281 Z M 146.40625 45.402344 L 150.429688 45.402344 L 148.363281 34.382812 Z M 146.40625 45.402344 " fill-opacity="1" fill-rule="nonzero"/></g></svg>