<svg xmlns="http://www.w3.org/2000/svg" xmlns:xlink="http://www.w3.org/1999/xlink" width="220" zoomAndPan="magnify" viewBox="0 0 165 82.499998" height="110" preserveAspectRatio="xMidYMid meet" version="1.0"><defs><clipPath id="7564ed7ee5"><path d="M 0.496094 0 L 164.503906 0 L 164.503906 82.003906 L 0.496094 82.003906 Z M 0.496094 0 " clip-rule="nonzero"/></clipPath><clipPath id="c0d34bd0fc"><path d="M 8.699219 26 L 45 26 L 45 57 L 8.699219 57 Z M 8.699219 26 " clip-rule="nonzero"/></clipPath><clipPath id="4df99b284e"><path d="M 53 31 L 156.300781 31 L 156.300781 53 L 53 53 Z M 53 31 " clip-rule="nonzero"/></clipPath></defs><g clip-path="url(#7564ed7ee5)"><path fill="#ffffff" d="M 0.496094 0 L 164.503906 0 L 164.503906 260.917969 L 0.496094 260.917969 Z M 0.496094 0 " fill-opacity="1" fill-rule="nonzero"/><path fill="#ffffff" d="M 0.496094 0 L 164.503906 0 L 164.503906 82.003906 L 0.496094 82.003906 Z M 0.496094 0 " fill-opacity="1" fill-rule="nonzero"/><path fill="#ffffff" d="M 0.496094 0 L 164.503906 0 L 164.503906 82.003906 L 0.496094 82.003906 Z M 0.496094 0 " fill-opacity="1" fill-rule="nonzero"/></g><path fill="#ff7b00" d="M 32.890625 50.292969 L 26.605469 43.996094 L 20.320312 50.292969 C 23.769531 53.75 29.441406 53.75 32.890625 50.292969 " fill-opacity="1" fill-rule="evenodd"/><path fill="#005c80" d="M 32.890625 50.292969 C 36.34375 46.835938 36.34375 41.15625 32.890625 37.699219 C 29.441406 34.242188 23.769531 34.242188 20.320312 37.699219 C 16.867188 41.15625 16.867188 46.835938 20.320312 50.292969 L 26.605469 43.996094 Z M 32.890625 50.292969 " fill-opacity="1" fill-rule="evenodd"/><g clip-path="url(#c0d34bd0fc)"><path fill="#00a7e2" d="M 14.035156 31.402344 C 7.132812 38.316406 7.132812 49.550781 14.035156 56.589844 L 20.320312 50.292969 C 16.867188 46.835938 16.867188 41.15625 20.320312 37.699219 C 23.769531 34.242188 29.441406 34.242188 32.890625 37.699219 C 36.34375 41.15625 36.34375 46.835938 32.890625 50.292969 L 39.175781 56.589844 C 46.078125 49.675781 46.078125 38.4375 39.175781 31.402344 C 32.273438 24.484375 20.9375 24.484375 14.035156 31.402344 " fill-opacity="1" fill-rule="evenodd"/></g><g clip-path="url(#4df99b284e)"><path fill="#000000" d="M 56.554688 52.761719 C 59.144531 52.144531 62.101562 49.550781 62.101562 44.859375 L 62.101562 31.402344 L 58.035156 31.402344 L 58.035156 44.488281 C 58.035156 47.820312 56.308594 49.425781 53.96875 50.042969 Z M 73.8125 48.808594 C 78.496094 48.808594 82.929688 45.351562 82.929688 39.921875 C 82.929688 34.488281 78.496094 31.03125 73.8125 31.03125 C 69.128906 31.03125 64.691406 34.488281 64.691406 39.921875 C 64.566406 45.351562 69.128906 48.808594 73.8125 48.808594 Z M 73.8125 45.230469 C 71.222656 45.230469 68.878906 43.128906 68.878906 39.921875 C 68.878906 36.710938 71.222656 34.609375 73.8125 34.609375 C 76.398438 34.609375 78.742188 36.710938 78.742188 39.921875 C 78.742188 43.128906 76.277344 45.230469 73.8125 45.230469 Z M 91.4375 48.441406 C 94.640625 48.441406 97.230469 46.464844 97.230469 43.128906 C 97.230469 41.03125 95.75 39.179688 94.269531 38.683594 C 95.132812 38.191406 95.625 36.957031 95.625 35.84375 C 95.625 33.128906 93.285156 31.277344 90.695312 31.277344 L 85.148438 31.277344 L 85.148438 48.441406 Z M 90.078125 37.945312 L 88.847656 37.945312 L 88.847656 34.488281 L 90.078125 34.488281 C 91.066406 34.488281 91.929688 34.980469 91.929688 36.214844 C 91.929688 37.449219 91.066406 37.945312 90.078125 37.945312 Z M 90.695312 45.476562 L 88.847656 45.476562 L 88.847656 41.03125 L 90.695312 41.03125 C 91.929688 41.03125 93.285156 41.773438 93.285156 43.253906 C 93.285156 44.734375 91.929688 45.476562 90.695312 45.476562 Z M 107.210938 48.441406 L 107.210938 34.859375 L 112.140625 34.859375 L 112.140625 31.402344 L 98.214844 31.402344 L 98.214844 34.859375 L 103.144531 34.859375 L 103.144531 48.441406 Z M 124.222656 48.441406 L 124.222656 45.105469 L 117.6875 45.105469 L 117.6875 41.648438 L 122.371094 41.648438 L 122.371094 38.191406 L 117.6875 38.191406 L 117.6875 34.859375 L 123.480469 34.859375 L 123.480469 31.402344 L 113.746094 31.402344 L 113.746094 48.441406 Z M 134.328125 48.6875 C 136.054688 48.6875 137.285156 48.441406 138.148438 48.070312 L 138.519531 44.488281 C 137.65625 44.980469 136.421875 45.230469 134.945312 45.230469 C 131.738281 45.230469 129.273438 43.128906 129.273438 40.042969 C 129.273438 36.957031 131.738281 34.859375 134.695312 34.859375 C 136.054688 34.859375 137.410156 35.226562 138.273438 35.722656 L 139.011719 32.265625 C 138.023438 31.648438 136.300781 31.277344 134.203125 31.277344 C 129.890625 31.277344 125.082031 34.242188 125.082031 40.042969 C 125.082031 45.847656 130.011719 48.6875 134.328125 48.6875 Z M 145.421875 48.441406 L 145.421875 41.648438 L 151.953125 41.648438 L 151.953125 48.441406 L 156.019531 48.441406 L 156.019531 31.402344 L 151.953125 31.402344 L 151.953125 38.066406 L 145.421875 38.066406 L 145.421875 31.402344 L 141.351562 31.402344 L 141.351562 48.441406 Z M 145.421875 48.441406 " fill-opacity="1" fill-rule="nonzero"/></g></svg>