<svg xmlns="http://www.w3.org/2000/svg" xmlns:xlink="http://www.w3.org/1999/xlink" width="220" zoomAndPan="magnify" viewBox="0 0 165 82.499998" height="110" preserveAspectRatio="xMidYMid meet" version="1.0"><defs><clipPath id="id1"><path d="M 0.496094 0 L 164.503906 0 L 164.503906 82.003906 L 0.496094 82.003906 Z M 0.496094 0 " clip-rule="nonzero"/></clipPath><clipPath id="id2"><path d="M 8.699219 16.578125 L 58 16.578125 L 58 65.78125 L 8.699219 65.78125 Z M 8.699219 16.578125 " clip-rule="nonzero"/></clipPath><clipPath id="id3"><path d="M 138 46 L 156.300781 46 L 156.300781 59 L 138 59 Z M 138 46 " clip-rule="nonzero"/></clipPath></defs><g clip-path="url(#id1)"><path fill="#ffffff" d="M 0.496094 0 L 164.503906 0 L 164.503906 89.457031 L 0.496094 89.457031 Z M 0.496094 0 " fill-opacity="1" fill-rule="nonzero"/><path fill="#ffffff" d="M 0.496094 0 L 164.503906 0 L 164.503906 82.003906 L 0.496094 82.003906 Z M 0.496094 0 " fill-opacity="1" fill-rule="nonzero"/><path fill="#ffffff" d="M 0.496094 0 L 164.503906 0 L 164.503906 82.003906 L 0.496094 82.003906 Z M 0.496094 0 " fill-opacity="1" fill-rule="nonzero"/><path fill="#ffffff" d="M 0.496094 0 L 164.503906 0 L 164.503906 82.003906 L 0.496094 82.003906 Z M 0.496094 0 " fill-opacity="1" fill-rule="nonzero"/></g><g clip-path="url(#id2)"><path fill="#00d672" d="M 33.011719 65.675781 C 32.21875 65.675781 31.421875 65.636719 30.628906 65.558594 C 29.835938 65.480469 29.050781 65.363281 28.269531 65.207031 C 27.488281 65.050781 26.71875 64.855469 25.953125 64.621094 C 25.191406 64.386719 24.445312 64.117188 23.707031 63.8125 C 22.972656 63.503906 22.253906 63.160156 21.550781 62.785156 C 20.847656 62.40625 20.167969 61.992188 19.503906 61.546875 C 18.84375 61.101562 18.203125 60.625 17.585938 60.117188 C 16.972656 59.605469 16.382812 59.070312 15.820312 58.5 C 15.257812 57.933594 14.722656 57.339844 14.214844 56.71875 C 13.710938 56.101562 13.238281 55.457031 12.796875 54.789062 C 12.351562 54.121094 11.945312 53.433594 11.570312 52.726562 C 11.191406 52.019531 10.851562 51.296875 10.546875 50.554688 C 10.242188 49.8125 9.976562 49.058594 9.746094 48.292969 C 9.511719 47.523438 9.320312 46.746094 9.164062 45.960938 C 9.007812 45.171875 8.890625 44.378906 8.8125 43.582031 C 8.734375 42.78125 8.699219 41.984375 8.699219 41.179688 C 8.699219 40.378906 8.734375 39.578125 8.8125 38.78125 C 8.890625 37.980469 9.007812 37.1875 9.164062 36.402344 C 9.320312 35.613281 9.511719 34.835938 9.746094 34.070312 C 9.976562 33.300781 10.242188 32.546875 10.546875 31.804688 C 10.851562 31.066406 11.191406 30.339844 11.570312 29.632812 C 11.945312 28.925781 12.351562 28.238281 12.796875 27.570312 C 13.238281 26.902344 13.710938 26.261719 14.214844 25.640625 C 14.722656 25.019531 15.257812 24.425781 15.820312 23.859375 C 16.382812 23.292969 16.972656 22.753906 17.585938 22.246094 C 18.203125 21.734375 18.84375 21.257812 19.503906 20.8125 C 20.167969 20.367188 20.847656 19.957031 21.550781 19.578125 C 22.253906 19.199219 22.972656 18.855469 23.707031 18.550781 C 24.445312 18.242188 25.191406 17.972656 25.953125 17.738281 C 26.71875 17.507812 27.488281 17.3125 28.269531 17.15625 C 29.050781 17 29.835938 16.882812 30.628906 16.800781 C 31.421875 16.722656 32.21875 16.683594 33.011719 16.683594 C 33.808594 16.683594 34.605469 16.722656 35.398438 16.800781 C 36.1875 16.882812 36.976562 17 37.757812 17.15625 C 38.539062 17.3125 39.308594 17.507812 40.070312 17.738281 C 40.832031 17.972656 41.582031 18.242188 42.320312 18.550781 C 43.054688 18.855469 43.773438 19.199219 44.476562 19.578125 C 45.179688 19.957031 45.859375 20.367188 46.523438 20.8125 C 47.183594 21.257812 47.824219 21.734375 48.4375 22.246094 C 49.054688 22.753906 49.644531 23.292969 50.207031 23.859375 C 50.769531 24.425781 51.304688 25.019531 51.808594 25.640625 C 52.316406 26.261719 52.789062 26.902344 53.230469 27.570312 C 53.671875 28.238281 54.082031 28.925781 54.457031 29.632812 C 54.832031 30.339844 55.171875 31.066406 55.476562 31.804688 C 55.78125 32.546875 56.050781 33.300781 56.28125 34.070312 C 56.511719 34.835938 56.707031 35.613281 56.863281 36.402344 C 57.015625 37.1875 57.132812 37.980469 57.210938 38.78125 C 57.289062 39.578125 57.328125 40.378906 57.328125 41.179688 C 57.328125 41.984375 57.289062 42.78125 57.210938 43.582031 C 57.132812 44.378906 57.015625 45.171875 56.863281 45.960938 C 56.707031 46.746094 56.511719 47.523438 56.28125 48.292969 C 56.050781 49.058594 55.78125 49.8125 55.476562 50.554688 C 55.171875 51.296875 54.832031 52.019531 54.457031 52.726562 C 54.082031 53.433594 53.671875 54.121094 53.230469 54.789062 C 52.789062 55.457031 52.316406 56.101562 51.808594 56.71875 C 51.304688 57.339844 50.769531 57.933594 50.207031 58.5 C 49.644531 59.070312 49.054688 59.605469 48.4375 60.117188 C 47.824219 60.625 47.183594 61.101562 46.523438 61.546875 C 45.859375 61.992188 45.179688 62.40625 44.476562 62.785156 C 43.773438 63.160156 43.054688 63.503906 42.320312 63.8125 C 41.582031 64.117188 40.832031 64.386719 40.070312 64.621094 C 39.308594 64.855469 38.539062 65.050781 37.757812 65.207031 C 36.976562 65.363281 36.1875 65.480469 35.398438 65.558594 C 34.605469 65.636719 33.808594 65.675781 33.011719 65.675781 " fill-opacity="1" fill-rule="nonzero"/></g><path fill="#ffffff" d="M 41.375 31.988281 L 32.769531 40.648438 L 27.519531 35.359375 L 24.082031 38.828125 L 32.769531 47.585938 L 36.210938 44.117188 L 37.929688 42.386719 L 39.65625 40.648438 L 41.375 38.917969 L 44.816406 35.449219 Z M 41.375 31.988281 " fill-opacity="1" fill-rule="nonzero"/><path fill="#ffffff" d="M 24.175781 49.3125 L 27.617188 45.84375 L 31.058594 49.3125 L 27.617188 52.777344 Z M 24.175781 49.3125 " fill-opacity="1" fill-rule="nonzero"/><path fill="#000000" d="M 70.117188 40.796875 L 72.578125 35.210938 L 67.660156 24.074219 L 71.175781 24.074219 L 74.3125 31.714844 L 77.429688 24.074219 L 80.960938 24.074219 L 73.609375 40.796875 Z M 70.117188 40.796875 " fill-opacity="1" fill-rule="nonzero"/><path fill="#000000" d="M 80.074219 29.96875 C 80.070312 29.5625 80.105469 29.15625 80.183594 28.753906 C 80.257812 28.355469 80.375 27.964844 80.527344 27.585938 C 80.679688 27.207031 80.867188 26.847656 81.089844 26.507812 C 81.3125 26.164062 81.566406 25.851562 81.851562 25.558594 C 82.136719 25.269531 82.445312 25.007812 82.78125 24.78125 C 83.117188 24.550781 83.472656 24.355469 83.847656 24.199219 C 84.21875 24.039062 84.605469 23.921875 85.003906 23.839844 C 85.398438 23.757812 85.800781 23.714844 86.207031 23.710938 C 86.613281 23.710938 87.011719 23.75 87.410156 23.828125 C 87.808594 23.90625 88.195312 24.019531 88.570312 24.175781 C 88.945312 24.332031 89.304688 24.519531 89.640625 24.746094 C 89.980469 24.972656 90.292969 25.230469 90.578125 25.515625 C 90.867188 25.804688 91.125 26.117188 91.351562 26.457031 C 91.578125 26.796875 91.765625 27.152344 91.921875 27.53125 C 92.078125 27.90625 92.199219 28.296875 92.277344 28.695312 C 92.359375 29.097656 92.398438 29.5 92.398438 29.910156 C 92.398438 30.316406 92.359375 30.722656 92.28125 31.125 C 92.203125 31.523438 92.085938 31.914062 91.933594 32.289062 C 91.777344 32.667969 91.585938 33.027344 91.363281 33.367188 C 91.136719 33.707031 90.882812 34.019531 90.59375 34.308594 C 90.308594 34.597656 89.996094 34.855469 89.660156 35.082031 C 89.320312 35.308594 88.964844 35.5 88.589844 35.65625 C 88.21875 35.8125 87.832031 35.929688 87.433594 36.011719 C 87.035156 36.089844 86.632812 36.128906 86.226562 36.128906 C 85.824219 36.132812 85.425781 36.09375 85.03125 36.015625 C 84.632812 35.941406 84.25 35.824219 83.875 35.671875 C 83.503906 35.519531 83.148438 35.328125 82.8125 35.105469 C 82.476562 34.882812 82.164062 34.625 81.878906 34.339844 C 81.59375 34.054688 81.335938 33.742188 81.113281 33.40625 C 80.886719 33.066406 80.699219 32.710938 80.542969 32.335938 C 80.386719 31.960938 80.273438 31.574219 80.191406 31.175781 C 80.113281 30.777344 80.074219 30.375 80.074219 29.96875 M 89.132812 29.96875 C 89.164062 29.5625 89.113281 29.164062 88.980469 28.777344 C 88.84375 28.390625 88.640625 28.046875 88.363281 27.746094 C 88.085938 27.449219 87.761719 27.214844 87.390625 27.050781 C 87.015625 26.886719 86.625 26.804688 86.21875 26.804688 C 85.8125 26.804688 85.425781 26.886719 85.050781 27.050781 C 84.679688 27.214844 84.355469 27.449219 84.078125 27.746094 C 83.800781 28.046875 83.597656 28.390625 83.460938 28.777344 C 83.328125 29.164062 83.277344 29.5625 83.304688 29.96875 C 83.277344 30.378906 83.328125 30.777344 83.460938 31.164062 C 83.597656 31.546875 83.800781 31.890625 84.078125 32.191406 C 84.355469 32.492188 84.679688 32.722656 85.050781 32.886719 C 85.425781 33.050781 85.8125 33.132812 86.21875 33.132812 C 86.625 33.132812 87.015625 33.050781 87.390625 32.886719 C 87.761719 32.722656 88.085938 32.492188 88.363281 32.191406 C 88.640625 31.890625 88.84375 31.546875 88.980469 31.164062 C 89.113281 30.777344 89.164062 30.378906 89.132812 29.96875 " fill-opacity="1" fill-rule="nonzero"/><path fill="#000000" d="M 93.277344 30.914062 L 93.277344 24.066406 L 96.484375 24.066406 L 96.484375 30.363281 C 96.484375 32.160156 97.070312 33.167969 98.480469 33.167969 C 99.886719 33.167969 100.921875 32.109375 100.921875 29.824219 L 100.921875 24.066406 L 104.128906 24.066406 L 104.128906 35.867188 L 100.921875 35.867188 L 100.921875 34.519531 C 100.5625 35.054688 100.097656 35.46875 99.527344 35.757812 C 98.957031 36.050781 98.355469 36.183594 97.714844 36.160156 C 94.90625 36.160156 93.3125 34.0625 93.3125 30.945312 " fill-opacity="1" fill-rule="nonzero"/><path fill="#000000" d="M 105.894531 24.066406 L 109.101562 24.066406 L 109.101562 25.410156 C 109.492188 24.871094 109.984375 24.457031 110.578125 24.167969 C 111.171875 23.875 111.796875 23.746094 112.457031 23.769531 C 115.289062 23.769531 116.976562 25.84375 116.976562 28.910156 L 116.976562 35.824219 L 113.769531 35.824219 L 113.769531 29.496094 C 113.769531 27.796875 113.042969 26.761719 111.707031 26.761719 C 110.210938 26.761719 109.101562 27.847656 109.101562 30.109375 L 109.101562 35.851562 L 105.894531 35.851562 Z M 105.894531 24.066406 " fill-opacity="1" fill-rule="nonzero"/><path fill="#000000" d="M 118.375 36.597656 L 121.519531 36.597656 C 121.605469 36.875 121.734375 37.128906 121.910156 37.359375 C 122.082031 37.589844 122.289062 37.785156 122.53125 37.945312 C 122.773438 38.105469 123.035156 38.21875 123.3125 38.285156 C 123.59375 38.355469 123.875 38.375 124.164062 38.34375 C 124.53125 38.359375 124.882812 38.296875 125.226562 38.160156 C 125.566406 38.019531 125.863281 37.816406 126.117188 37.550781 C 126.371094 37.28125 126.558594 36.972656 126.675781 36.625 C 126.796875 36.273438 126.84375 35.914062 126.808594 35.546875 L 126.808594 34.152344 C 126.394531 34.660156 125.886719 35.054688 125.289062 35.328125 C 124.695312 35.601562 124.070312 35.726562 123.414062 35.710938 C 123.039062 35.699219 122.671875 35.652344 122.308594 35.566406 C 121.941406 35.484375 121.589844 35.363281 121.25 35.210938 C 120.90625 35.054688 120.585938 34.867188 120.28125 34.648438 C 119.976562 34.429688 119.695312 34.183594 119.4375 33.910156 C 119.179688 33.636719 118.953125 33.339844 118.753906 33.019531 C 118.554688 32.703125 118.390625 32.367188 118.257812 32.015625 C 118.125 31.660156 118.027344 31.300781 117.964844 30.929688 C 117.902344 30.558594 117.875 30.183594 117.886719 29.804688 C 117.871094 29.425781 117.894531 29.050781 117.953125 28.675781 C 118.011719 28.300781 118.105469 27.933594 118.238281 27.578125 C 118.367188 27.222656 118.535156 26.882812 118.730469 26.558594 C 118.929688 26.238281 119.15625 25.9375 119.414062 25.660156 C 119.671875 25.378906 119.953125 25.132812 120.257812 24.910156 C 120.566406 24.6875 120.890625 24.5 121.234375 24.34375 C 121.578125 24.1875 121.929688 24.066406 122.296875 23.980469 C 122.664062 23.894531 123.039062 23.847656 123.414062 23.835938 C 124.074219 23.8125 124.703125 23.9375 125.300781 24.214844 C 125.898438 24.496094 126.402344 24.894531 126.808594 25.417969 L 126.808594 24.066406 L 129.992188 24.066406 L 129.992188 35.136719 C 129.992188 39.410156 127.109375 41.03125 124.066406 41.03125 C 120.746094 41.03125 118.613281 39.121094 118.367188 36.597656 M 127.070312 29.804688 C 127.089844 29.394531 127.03125 28.996094 126.890625 28.609375 C 126.75 28.222656 126.535156 27.882812 126.253906 27.582031 C 125.972656 27.285156 125.644531 27.054688 125.269531 26.890625 C 124.894531 26.730469 124.503906 26.648438 124.09375 26.648438 C 123.6875 26.648438 123.292969 26.730469 122.917969 26.890625 C 122.542969 27.054688 122.214844 27.285156 121.933594 27.582031 C 121.652344 27.882812 121.441406 28.222656 121.300781 28.609375 C 121.15625 28.996094 121.097656 29.394531 121.117188 29.804688 C 121.097656 30.21875 121.15625 30.617188 121.300781 31 C 121.441406 31.386719 121.652344 31.730469 121.933594 32.027344 C 122.214844 32.328125 122.542969 32.558594 122.917969 32.71875 C 123.292969 32.882812 123.6875 32.964844 124.09375 32.964844 C 124.503906 32.964844 124.894531 32.882812 125.269531 32.71875 C 125.644531 32.558594 125.972656 32.328125 126.253906 32.027344 C 126.535156 31.730469 126.75 31.386719 126.890625 31 C 127.03125 30.617188 127.089844 30.21875 127.070312 29.804688 " fill-opacity="1" fill-rule="nonzero"/><path fill="#000000" d="M 69.75 63.558594 L 69.75 46.839844 L 72.960938 46.839844 L 72.960938 48.160156 C 73.375 47.648438 73.882812 47.25 74.480469 46.972656 C 75.078125 46.695312 75.703125 46.5625 76.363281 46.578125 C 79.472656 46.578125 81.863281 49.40625 81.863281 52.734375 C 81.863281 56.066406 79.472656 58.894531 76.363281 58.894531 C 75.703125 58.90625 75.078125 58.773438 74.480469 58.496094 C 73.882812 58.21875 73.375 57.824219 72.960938 57.3125 L 72.960938 63.558594 Z M 78.59375 52.769531 C 78.628906 52.351562 78.582031 51.941406 78.449219 51.546875 C 78.316406 51.148438 78.109375 50.792969 77.828125 50.484375 C 77.550781 50.175781 77.21875 49.933594 76.835938 49.765625 C 76.457031 49.597656 76.058594 49.511719 75.640625 49.511719 C 75.226562 49.511719 74.828125 49.597656 74.445312 49.765625 C 74.066406 49.933594 73.734375 50.175781 73.453125 50.484375 C 73.171875 50.792969 72.964844 51.148438 72.832031 51.546875 C 72.699219 51.941406 72.652344 52.351562 72.691406 52.769531 C 72.652344 53.1875 72.699219 53.59375 72.832031 53.992188 C 72.964844 54.386719 73.171875 54.742188 73.453125 55.050781 C 73.734375 55.363281 74.066406 55.601562 74.445312 55.769531 C 74.828125 55.9375 75.226562 56.023438 75.640625 56.023438 C 76.058594 56.023438 76.457031 55.9375 76.835938 55.769531 C 77.21875 55.601562 77.550781 55.363281 77.828125 55.050781 C 78.109375 54.742188 78.316406 54.386719 78.449219 53.992188 C 78.582031 53.59375 78.628906 53.1875 78.59375 52.769531 " fill-opacity="1" fill-rule="nonzero"/><path fill="#000000" d="M 82.898438 40.941406 L 86.105469 40.941406 L 86.105469 58.632812 L 82.898438 58.632812 Z M 82.898438 40.941406 " fill-opacity="1" fill-rule="nonzero"/><path fill="#000000" d="M 87.15625 52.769531 C 87.15625 49.4375 89.550781 46.609375 92.660156 46.609375 C 93.3125 46.597656 93.9375 46.726562 94.53125 47.007812 C 95.125 47.285156 95.625 47.679688 96.039062 48.191406 L 96.039062 46.839844 L 99.246094 46.839844 L 99.246094 58.632812 L 96.039062 58.632812 L 96.039062 57.3125 C 95.625 57.824219 95.125 58.21875 94.53125 58.496094 C 93.9375 58.773438 93.3125 58.90625 92.660156 58.894531 C 89.550781 58.894531 87.15625 56.058594 87.15625 52.734375 M 96.289062 52.734375 C 96.328125 52.316406 96.28125 51.910156 96.148438 51.511719 C 96.015625 51.113281 95.808594 50.761719 95.527344 50.453125 C 95.246094 50.140625 94.914062 49.902344 94.535156 49.734375 C 94.152344 49.5625 93.753906 49.480469 93.339844 49.480469 C 92.921875 49.480469 92.523438 49.5625 92.144531 49.734375 C 91.761719 49.902344 91.433594 50.140625 91.152344 50.453125 C 90.871094 50.761719 90.664062 51.113281 90.53125 51.511719 C 90.398438 51.910156 90.351562 52.316406 90.386719 52.734375 C 90.351562 53.152344 90.398438 53.5625 90.53125 53.957031 C 90.664062 54.355469 90.871094 54.710938 91.152344 55.019531 C 91.433594 55.328125 91.761719 55.566406 92.144531 55.738281 C 92.523438 55.90625 92.921875 55.992188 93.339844 55.992188 C 93.753906 55.992188 94.152344 55.90625 94.535156 55.738281 C 94.914062 55.566406 95.246094 55.328125 95.527344 55.019531 C 95.808594 54.710938 96.015625 54.355469 96.148438 53.957031 C 96.28125 53.5625 96.328125 53.152344 96.289062 52.734375 " fill-opacity="1" fill-rule="nonzero"/><path fill="#000000" d="M 102.265625 54.507812 L 102.265625 49.667969 L 99.871094 49.667969 L 99.871094 46.839844 L 102.242188 46.839844 L 102.242188 43.558594 L 105.449219 43.558594 L 105.449219 46.839844 L 108.746094 46.839844 L 108.746094 49.667969 L 105.449219 49.667969 L 105.449219 53.867188 C 105.449219 55.300781 106.035156 55.867188 107.433594 55.867188 C 107.882812 55.878906 108.320312 55.808594 108.746094 55.664062 L 108.746094 58.507812 C 108.078125 58.699219 107.402344 58.785156 106.710938 58.761719 C 104.226562 58.761719 102.242188 57.394531 102.242188 54.5 " fill-opacity="1" fill-rule="nonzero"/><path fill="#000000" d="M 111.015625 49.667969 L 108.65625 49.667969 L 108.65625 46.839844 L 111.015625 46.839844 L 111.015625 45.304688 C 111 45.003906 111.011719 44.707031 111.058594 44.40625 C 111.101562 44.109375 111.179688 43.820312 111.285156 43.539062 C 111.390625 43.257812 111.523438 42.988281 111.6875 42.734375 C 111.851562 42.484375 112.039062 42.25 112.25 42.035156 C 112.460938 41.824219 112.691406 41.636719 112.941406 41.472656 C 113.195312 41.308594 113.460938 41.171875 113.738281 41.066406 C 114.019531 40.957031 114.304688 40.882812 114.601562 40.835938 C 114.898438 40.789062 115.195312 40.777344 115.492188 40.796875 C 116.1875 40.777344 116.863281 40.863281 117.527344 41.058594 L 117.527344 43.910156 C 117.105469 43.761719 116.667969 43.691406 116.21875 43.699219 C 114.808594 43.699219 114.230469 44.265625 114.230469 45.707031 L 114.230469 46.839844 L 117.527344 46.839844 L 117.527344 49.667969 L 114.230469 49.667969 L 114.230469 58.632812 L 111.015625 58.632812 Z M 111.015625 49.667969 " fill-opacity="1" fill-rule="nonzero"/><path fill="#000000" d="M 117.039062 52.769531 C 117.039062 52.359375 117.074219 51.953125 117.148438 51.554688 C 117.226562 51.152344 117.339844 50.761719 117.492188 50.382812 C 117.644531 50.007812 117.832031 49.644531 118.054688 49.304688 C 118.277344 48.964844 118.53125 48.648438 118.816406 48.355469 C 119.101562 48.066406 119.414062 47.808594 119.75 47.578125 C 120.085938 47.347656 120.4375 47.15625 120.8125 46.996094 C 121.1875 46.839844 121.570312 46.71875 121.96875 46.636719 C 122.367188 46.554688 122.765625 46.511719 123.171875 46.511719 C 123.578125 46.507812 123.980469 46.546875 124.378906 46.625 C 124.777344 46.703125 125.164062 46.820312 125.539062 46.972656 C 125.914062 47.128906 126.269531 47.320312 126.609375 47.542969 C 126.945312 47.769531 127.257812 48.027344 127.546875 48.316406 C 127.832031 48.601562 128.089844 48.914062 128.316406 49.253906 C 128.542969 49.59375 128.734375 49.953125 128.890625 50.328125 C 129.046875 50.707031 129.164062 51.09375 129.246094 51.496094 C 129.324219 51.894531 129.363281 52.300781 129.363281 52.707031 C 129.367188 53.117188 129.328125 53.519531 129.25 53.921875 C 129.171875 54.320312 129.054688 54.710938 128.898438 55.089844 C 128.742188 55.464844 128.554688 55.824219 128.328125 56.164062 C 128.105469 56.503906 127.847656 56.820312 127.5625 57.109375 C 127.273438 57.394531 126.964844 57.65625 126.625 57.882812 C 126.289062 58.109375 125.933594 58.300781 125.558594 58.457031 C 125.183594 58.613281 124.796875 58.730469 124.398438 58.808594 C 124 58.886719 123.601562 58.925781 123.195312 58.925781 C 122.792969 58.929688 122.390625 58.890625 121.996094 58.816406 C 121.601562 58.738281 121.214844 58.625 120.84375 58.46875 C 120.46875 58.316406 120.113281 58.128906 119.777344 57.902344 C 119.441406 57.679688 119.132812 57.425781 118.84375 57.136719 C 118.558594 56.851562 118.304688 56.539062 118.078125 56.203125 C 117.855469 55.867188 117.664062 55.507812 117.511719 55.132812 C 117.355469 54.757812 117.238281 54.371094 117.160156 53.976562 C 117.078125 53.578125 117.039062 53.175781 117.039062 52.769531 M 126.101562 52.769531 C 126.132812 52.359375 126.078125 51.960938 125.945312 51.574219 C 125.8125 51.1875 125.605469 50.847656 125.328125 50.546875 C 125.050781 50.246094 124.726562 50.015625 124.355469 49.851562 C 123.984375 49.6875 123.59375 49.605469 123.1875 49.605469 C 122.78125 49.605469 122.390625 49.6875 122.019531 49.851562 C 121.644531 50.015625 121.320312 50.246094 121.042969 50.546875 C 120.769531 50.847656 120.5625 51.1875 120.429688 51.574219 C 120.292969 51.960938 120.242188 52.359375 120.273438 52.769531 C 120.242188 53.175781 120.292969 53.574219 120.429688 53.960938 C 120.5625 54.347656 120.769531 54.691406 121.042969 54.992188 C 121.320312 55.289062 121.644531 55.523438 122.019531 55.6875 C 122.390625 55.851562 122.78125 55.933594 123.1875 55.933594 C 123.59375 55.933594 123.984375 55.851562 124.355469 55.6875 C 124.726562 55.523438 125.050781 55.289062 125.328125 54.992188 C 125.605469 54.691406 125.8125 54.347656 125.945312 53.960938 C 126.078125 53.574219 126.132812 53.175781 126.101562 52.769531 " fill-opacity="1" fill-rule="nonzero"/><path fill="#000000" d="M 130.382812 46.839844 L 133.589844 46.839844 L 133.589844 48.726562 C 133.820312 48.113281 134.199219 47.625 134.734375 47.25 C 135.265625 46.878906 135.855469 46.691406 136.503906 46.691406 C 136.871094 46.683594 137.230469 46.730469 137.578125 46.839844 L 137.578125 50.121094 C 137.113281 49.945312 136.628906 49.855469 136.128906 49.855469 C 134.609375 49.855469 133.597656 51.039062 133.597656 52.996094 L 133.597656 58.632812 L 130.390625 58.632812 Z M 130.382812 46.839844 " fill-opacity="1" fill-rule="nonzero"/><g clip-path="url(#id3)"><path fill="#000000" d="M 153.09375 52.332031 C 153.09375 50.5625 152.558594 49.527344 151.273438 49.527344 C 149.984375 49.527344 149 50.539062 148.925781 52.710938 L 148.925781 58.632812 L 145.71875 58.632812 L 145.71875 52.332031 C 145.71875 50.5625 145.183594 49.527344 143.894531 49.527344 C 142.488281 49.527344 141.550781 50.609375 141.550781 52.875 L 141.550781 58.617188 L 138.34375 58.617188 L 138.34375 46.839844 L 141.550781 46.839844 L 141.550781 48.183594 C 141.898438 47.660156 142.351562 47.253906 142.902344 46.964844 C 143.457031 46.671875 144.046875 46.53125 144.667969 46.542969 C 145.433594 46.519531 146.144531 46.703125 146.800781 47.097656 C 147.457031 47.492188 147.957031 48.03125 148.300781 48.71875 C 148.675781 48.054688 149.191406 47.53125 149.847656 47.148438 C 150.503906 46.765625 151.214844 46.574219 151.972656 46.578125 C 154.78125 46.578125 156.34375 48.585938 156.34375 51.792969 L 156.34375 58.632812 L 153.136719 58.632812 Z M 153.09375 52.332031 " fill-opacity="1" fill-rule="nonzero"/></g></svg>